PathFileType	4	(X/Y/Z)	T1_P2_Vision_NoMovement_4_0-734.trc
DataRate	CameraRate	NumFrames	NumMarkers	Units	OrigDataRate	OrigDataStartFrame	OrigNumFrames
60	60	7	27	m	60	91	734
Frame#	Time	RHip			RKnee			RAnkle			RBigToe			RSmallToe			RHeel			LHip			LKnee			LAnkle			LBigToe			LSmallToe			LHeel			Neck			Head			Nose			RShoulder			RElbow			RWrist			RThumb			RIndex			RPinky			LShoulder			LElbow			LWrist			LThumb			LIndex			LPinky		
		X1	Y1	Z1	X2	Y2	Z2	X3	Y3	Z3	X4	Y4	Z4	X5	Y5	Z5	X6	Y6	Z6	X7	Y7	Z7	X8	Y8	Z8	X9	Y9	Z9	X10	Y10	Z10	X11	Y11	Z11	X12	Y12	Z12	X13	Y13	Z13	X14	Y14	Z14	X15	Y15	Z15	X16	Y16	Z16	X17	Y17	Z17	X18	Y18	Z18	X19	Y19	Z19	X20	Y20	Z20	X21	Y21	Z21	X22	Y22	Z22	X23	Y23	Z23	X24	Y24	Z24	X25	Y25	Z25	X26	Y26	Z26	X27	Y27	Z27
92	1.5333333333333334	457.68342564387257	3730.5377869800086	658.2825803187434	849.7432859415717	3793.9159778883754	656.3947978260729	1201.5823698481088	3729.5665924952436	674.1203697737106	1290.087854592915	3644.0037348486676	649.2463166171768	1293.8392785180263	3713.138799970477	612.6555973271059	1276.3805800445361	3810.4864163128864	745.3479946770735	459.97895664593625	3628.0377038840675	850.3843299646779	839.1910114775957	3650.574147160462	865.0537260530061	1226.647716062281	3675.142498218214	854.4077212755636	1309.946318186877	3562.9364281291328	811.7552052026573	1283.3263407285906	3537.723211791229	844.5693834181887	1251.0740958574572	3702.180215008074	855.7366163465549	-126.20838846683351	3652.3758936709132	755.0937156418256	-388.6839467129969	3589.764540771473	709.1405800906609	-247.11115512231058	3539.217184150427	698.6298820484342	-40.91204189872708	3708.6508241403703	617.1382861858096	199.28102659066178	3715.2520468668513	546.7258112175905	350.4032200327473	3556.700065464185	630.8309526371216	388.4504653358134	3469.788498904426	662.3497727467565	429.23163750649593	3522.1970188787045	721.4474456547457	452.61880293388253	3498.409397717704	696.0613099966298	-38.49226662650619	3593.888459670319	910.6731854528241	213.48908585715665	3513.0903739092637	916.3451649626538	368.5179731412593	3454.6740878894925	728.0350914593464	403.716987654337	3456.7413334826215	630.3253176705239	437.7643856026908	3472.7570715773727	626.8194963177939	472.8422271628077	3497.9790952804733	707.0676295836297
93	1.55	457.61249666521576	3730.3885174177117	658.2076997405313	844.4337243281392	3771.4147849555748	650.4942255297276	1201.535679881702	3729.89872188634	674.2684421639779	1297.8435540160108	3659.925672739657	662.5707250236596	1293.9145111865548	3713.072168748171	612.532274515137	1276.1540490971365	3810.7963131249844	745.4715248430985	459.96961705834167	3627.8123864498907	850.2681176881115	842.571781907591	3645.231463601259	861.9591230515074	1221.5258506415878	3673.049286897133	852.6027344744157	1309.4894676239987	3562.0305611863837	811.5211274780189	1283.1053402681357	3537.425174345354	844.462942370484	1250.9277314970973	3702.278591333535	855.8111201969729	-126.24394711810008	3652.474001076031	755.1807076995389	-388.69545412216314	3589.949324732652	709.171007117392	-247.09593276179703	3539.2336562791747	698.6234195839485	-40.904870405564616	3708.79109340304	617.2146040274645	199.2249037091994	3715.2067887413473	546.8124948450387	345.81733498983164	3555.040329868793	629.8786402865722	385.46289395099905	3484.0280868932305	684.0407966355878	429.2326575788163	3521.936035196697	721.332293118188	452.4638558387341	3498.448143028557	696.1903071056714	-38.55521330954995	3594.0392197664873	910.8134774907949	213.55556412327903	3512.9522035788846	916.224728964786	363.8141696734761	3450.622217533084	726.3103173741242	400.9585094054158	3441.988971183617	617.2965227605824	433.0766087944437	3471.415255148253	625.982330483509	472.72823351027665	3498.0468874655303	707.0792478718578
94	1.5666666666666667	457.62954369230005	3730.0658417456966	658.0723378329286	838.4809922244834	3766.8713725865136	649.3844668836493	1201.3374658087089	3729.962789331306	674.3947384349037	1303.0000302550711	3662.612669517788	664.8231002779618	1294.0028048727863	3713.669439714633	612.9827921323503	1262.0061003845847	3784.507726583877	738.2211059210854	460.0363355076844	3627.524116722878	850.1806859143128	842.6772265790399	3631.640967209032	849.383170895234	1226.6348378391224	3674.973007774775	854.2945899709636	1309.4514394080024	3561.8658051104217	811.5169136809312	1283.3077651513668	3537.280375683528	844.4894148887879	1250.7333618878047	3702.2377833056034	855.7891078764677	-126.28597270678218	3652.391933480577	755.2172911186849	-388.53944300164375	3589.594726956203	709.2404612354806	-242.75966357098034	3558.6220535305897	714.6578254343624	-40.89258701310707	3708.566361756191	617.1825643469235	199.2407368983589	3715.1826221800525	546.787663565732	345.88805684497436	3555.1188725461193	629.9479091514545	385.45504840451406	3484.022029740524	684.0036544335547	429.3198128026331	3521.9339764928236	721.3633082201266	452.8471594436236	3497.389734354261	700.8345141397881	-38.5097489315585	3593.795101926276	910.672245679326	208.1960484286827	3508.6211658437114	914.1836283099393	363.8555867281131	3450.2966005230937	726.1446896764625	400.98175731133773	3441.8988169541653	617.1542152940519	437.73678769594966	3472.227507447053	626.5101205788161	472.838736300776	3497.5454340478454	706.8800663506427
95	1.5833333333333333	457.4686637595594	3730.0619155908435	658.1757866824366	838.1297415105367	3766.4634000113897	649.188398053493	1195.6649455814318	3727.6331484149327	672.4364790240307	1297.4543408437391	3659.987844045285	662.251719940065	1293.7157751804807	3713.2803840548486	612.7122587310228	1263.4915843799226	3803.9577045391347	742.4837000298166	459.88710996142186	3627.639838616443	850.3492991494685	844.3605573935404	3652.4138769924616	866.5481769068188	1226.6127175956788	3675.0623125471557	854.3317373865225	1309.4289624759674	3561.9420682013915	811.7992415715876	1282.9435856540908	3537.1541071574197	844.4231753978972	1251.057876143529	3702.2703641483395	855.811873400995	-126.24570510564214	3652.3711351255756	755.2372694577401	-388.5854877463735	3589.9360039991534	709.337789265227	-242.70259312497797	3558.7114537677776	714.7084329412448	-40.91229495468659	3708.341252485899	617.0808748187256	197.64365274604975	3693.507970092663	541.8753319327986	345.94492816091366	3554.92540606815	629.886406489894	395.3773428580468	3495.9461502621402	692.6396446600318	429.28325048118904	3521.5550158171463	721.28888329139	452.89966032107407	3496.8351404742757	700.6137005538204	-38.54258031072529	3593.9736109414034	910.8948249116728	208.18354264589007	3508.7740836985954	914.2547288825189	363.73768385452604	3450.1884938317303	726.1151644067237	401.2113613449664	3437.8516893847072	625.289135316193	430.5182171750811	3450.9164495804457	620.2882152373257	472.8368299866035	3496.9888338711485	706.7834113596834
96	1.6	462.6739627643417	3731.5017946288267	659.1469116024017	834.8852773157486	3771.84518032735	651.9843524947172	1201.2237997652928	3729.6982961444605	674.298212158864	1297.576442202692	3660.47363392131	662.6194617752457	1293.676902108415	3713.4569046325514	612.9105162924816	1262.06629587759	3786.7312453275304	737.589740726941	459.9385424493137	3627.586774414474	850.2663672233786	844.3672698887158	3652.2105470603137	866.5111031833801	1226.734925574278	3675.028916912345	854.3554407188068	1309.6095942935085	3562.2502007232174	811.8566912028818	1283.1701520279619	3537.3585790753946	844.6040965648655	1251.115239688991	3702.3217464343434	855.8859508559088	-126.38025389273696	3652.450120765615	755.3591469595013	-388.5872148637125	3588.460026843219	713.5894451298145	-251.77047052095824	3558.7072265410334	715.20716255375	-40.9206978146541	3708.162564101586	617.0635983131554	197.65120713695214	3693.403383645712	541.8535940196492	345.96221657920705	3554.936657134841	629.9343749844679	378.9692669074694	3457.1152762655356	653.5893590114146	429.1823769188402	3521.5047177944875	721.1937955086003	452.9949294158929	3496.7662422267563	700.6301482291041	-38.65911909309474	3593.996814474218	910.8998801748095	208.24955491278172	3508.812284619704	914.2464053068558	363.77684258585106	3450.169873252778	726.0755296804737	403.52180806242995	3456.5838688360527	630.389171724665	430.61680446835857	3451.128495422453	620.323135610531	472.8760148363084	3496.9220655186273	706.8084584695282
97	1.6166666666666667	462.7756969397929	3731.4464922856573	659.0867025918735	838.9004153572386	3748.2303023132336	644.3206287114095	1201.5451225156323	3729.6296283042398	674.3378075205545	1302.5271126221248	3661.3054667961997	663.9320294356687	1286.1639526360275	3691.2567462813313	607.0870457033924	1276.4317244938002	3810.62250220607	745.5286825085594	459.870021661373	3627.7362521783803	850.4209405448162	853.9170614052375	3651.150890467723	864.9963496721334	1226.706191707673	3675.063359024645	854.364834527765	1309.760495242463	3562.384448735051	812.1045675058389	1288.3025762010293	3539.088420040341	846.2446380951573	1251.0885741519603	3702.0839269439566	855.728728409244	-126.42510946936385	3652.4998294260463	755.4434893566273	-388.55656429549646	3588.3874704143022	713.615481955268	-246.96360314813228	3560.551588656085	720.7304365030499	-40.731635719902286	3708.529637039582	617.2239369435518	197.72879761605705	3693.315201332097	541.8361849025906	345.8187292165626	3554.623671232866	629.7146262810252	388.74714003854166	3468.701174996808	661.6632611290493	429.1908072790334	3521.3586102453	721.2621432232	449.4614892322726	3500.7519340352906	703.1927753771936	-38.7476698641601	3593.897211570072	911.0955023014466	218.1842173001002	3508.15363588704	913.5015851869761	363.8267382866596	3450.522160370232	726.2700390065853	401.17565380396405	3442.058569736704	616.884970822481	434.7532590558275	3459.0388357002753	614.1313215265718	476.73383968167144	3499.3538840250344	707.9416608448224
98	1.6333333333333333	457.34173530134	3729.727581846622	658.1556776475402	832.9713623559711	3743.870383851084	643.225824213635	1201.534093327602	3729.438575539081	674.1742529324068	1295.2522482639965	3645.894247423494	651.0352614390142	1296.4437838641468	3707.6837048387597	609.7037558279571	1269.1616388376885	3788.890915539757	739.3899808474072	459.7428175014763	3627.7462088200327	850.5451174327038	847.8962788724962	3647.018062456619	863.5544045933491	1229.771816178529	3669.1110093890074	850.7839702566395	1310.0000707501101	3562.713962173316	812.3284874138176	1281.1644397412913	3534.6783190166666	844.9491901433303	1254.0053998119993	3696.6091998681245	852.4633822693855	-126.27753105707563	3649.7560203792614	758.9921085996341	-393.0770303242778	3591.735126057379	715.4410032975729	-246.91863328220654	3560.515205936596	720.800761986703	-40.74237656452142	3708.276333374535	617.0934690300975	197.73610999375586	3693.218567993419	541.8581489205403	350.4709198031029	3556.0866024143684	630.6138396348476	378.7262304060623	3455.889820164293	652.5094941713667	429.1981113080832	3521.313287546679	721.2035954964974	452.9296953434537	3496.6725822547296	700.7259232779521	-38.699926726333075	3593.779876193906	911.0434690851606	218.08553917657332	3508.067675001736	913.4122754877201	363.79982143382614	3450.4277532033043	726.226119871731	401.03444116476396	3441.1536352023136	616.3398267318294	434.58676439429166	3458.0417097536747	613.6960724230975	476.85259397150224	3498.476061478766	707.6349838070649
